HIERARCHY
ROOT Pelvis
{
	OFFSET 0.000000 0.000000 0.000000
	CHANNELS 6 Xposition Yposition Zposition Zrotation Yrotation Xrotation 
	JOINT Left_hip
	{
		OFFSET 0.076090 -0.089427 -0.010735
		CHANNELS 3 Zrotation Yrotation Xrotation
		JOINT Left_knee
		{
			OFFSET 0.030200 -0.359518 -0.003501
			CHANNELS 3 Zrotation Yrotation Xrotation
			JOINT Left_ankle
			{
				OFFSET -0.011005 -0.371022 -0.045888
				CHANNELS 3 Zrotation Yrotation Xrotation
				JOINT Left_foot
				{
					OFFSET 0.023930 -0.052103 0.111084
					CHANNELS 3 Zrotation Yrotation Xrotation
					End Site
					{
						OFFSET 0.000000 0.000000 0.000000
					}
				}
			}
		}
	}
	JOINT Right_hip
	{
		OFFSET -0.073836 -0.088112 -0.007709
		CHANNELS 3 Zrotation Yrotation Xrotation
		JOINT Right_knee
		{
			OFFSET -0.035715 -0.367809 -0.006536
			CHANNELS 3 Zrotation Yrotation Xrotation
			JOINT Right_ankle
			{
				OFFSET 0.013718 -0.371958 -0.043815
				CHANNELS 3 Zrotation Yrotation Xrotation
				JOINT Right_foot
				{
					OFFSET -0.021936 -0.046387 0.114542
					CHANNELS 3 Zrotation Yrotation Xrotation
					End Site
					{
						OFFSET 0.000000 0.000000 0.000000
					}
				}
			}
		}
	}
	JOINT Spine1
	{
		OFFSET -0.001865 0.102064 -0.019455
		CHANNELS 3 Zrotation Yrotation Xrotation
		JOINT Spine2
		{
			OFFSET 0.003082 0.129260 -0.001938
			CHANNELS 3 Zrotation Yrotation Xrotation
			JOINT Spine3
			{
				OFFSET 0.001104 0.048093 0.026561
				CHANNELS 3 Zrotation Yrotation Xrotation
				JOINT Neck
				{
					OFFSET -0.002010 0.204222 -0.047183
					CHANNELS 3 Zrotation Yrotation Xrotation
					JOINT Head
					{
						OFFSET 0.005050 0.063649 0.048489
						CHANNELS 3 Zrotation Yrotation Xrotation
						End Site
						{
							OFFSET 0.000000 0.000000 0.000000
						}
					}
				}
				JOINT Left_collar
				{
					OFFSET 0.072979 0.114065 -0.031633
					CHANNELS 3 Zrotation Yrotation Xrotation
					JOINT Left_shoulder
					{
						OFFSET 0.083419 0.032092 -0.006530
						CHANNELS 3 Zrotation Yrotation Xrotation
						JOINT Left_elbow
						{
							OFFSET 0.239393 -0.012014 -0.025060
							CHANNELS 3 Zrotation Yrotation Xrotation
							JOINT Left_wrist
							{
								OFFSET 0.227297 0.008116 0.000384
								CHANNELS 3 Zrotation Yrotation Xrotation
								JOINT Left_palm
								{
									OFFSET 0.074607 -0.009248 -0.012277
									CHANNELS 3 Zrotation Yrotation Xrotation
									End Site
									{
										OFFSET 0.000000 0.000000 0.000000
									}
								}
							}
						}
					}
				}
				JOINT Right_collar
				{
					OFFSET -0.074980 0.111880 -0.037894
					CHANNELS 3 Zrotation Yrotation Xrotation
					JOINT Right_shoulder
					{
						OFFSET -0.087565 0.034353 -0.009323
						CHANNELS 3 Zrotation Yrotation Xrotation
						JOINT Right_elbow
						{
							OFFSET -0.236838 -0.013719 -0.019794
							CHANNELS 3 Zrotation Yrotation Xrotation
							JOINT Right_wrist
							{
								OFFSET -0.235053 0.006433 -0.003853
								CHANNELS 3 Zrotation Yrotation Xrotation
								JOINT Right_palm
								{
									OFFSET -0.075499 -0.006894 -0.009792
									CHANNELS 3 Zrotation Yrotation Xrotation
									End Site
									{
										OFFSET 0.000000 0.000000 0.000000
									}
								}
							}
						}
					}
				}
			}
		}
	}
}
MOTION
Frames: 12
Frame Time: 0.100000
0.000000 0.000000 0.000000 175.514000 23.864914 -12.753343 4.242875 0.832528 4.806396 -2.759090 -9.316764 -6.535915 -3.636045 6.767896 -4.222904 6.041391 6.594466 -5.191574 -1.417811 -2.730643 7.213740 2.904615 4.705236 -5.268500 6.578178 -12.315721 -9.543945 -10.482853 6.494640 2.414357 2.647883 1.090321 4.097080 0.250463 -1.684191 1.838101 1.037832 -1.942040 2.520303 -3.844518 5.394376 -17.712508 -4.967824 -0.924455 -2.929232 -29.441726 2.746589 2.694879 -55.592761 -3.288276 7.668917 3.593011 -5.440369 10.127046 -7.105074 -1.365942 -0.711206 -8.969223 -4.770138 -11.286788 29.393756 0.974899 4.234092 48.886323 0.198241 12.892295 -5.577841 7.108455 -2.059845 5.835715 -1.521435 0.263663 12.188078 6.918917 -7.179172 
0.000313 0.000819 -0.001342 175.601060 23.801815 -12.736593 4.207780 0.541037 4.503738 -2.838946 -9.124309 -6.277762 -2.632269 5.761623 -4.639056 4.278041 8.217777 -4.108411 -1.342761 -2.558108 7.123140 2.703815 4.213916 -5.291953 6.224070 -12.568465 -10.057766 -9.040348 7.950591 3.583089 2.164726 1.363453 3.630414 0.448710 -1.935573 1.341450 0.921435 -1.750879 0.769649 -2.735305 6.630382 -15.114154 -5.177374 -0.885383 0.642478 -29.621341 -2.851432 1.665766 -50.878705 -10.233533 8.194802 5.805379 -14.414188 6.785290 -3.133711 -1.184816 1.205445 -9.550212 -5.238006 -9.833906 29.635621 4.974856 3.445375 45.445655 4.764410 13.202450 -8.826467 14.662348 -4.846094 2.643069 -0.478171 1.501602 12.526863 7.578262 -6.830905 
0.000251 0.000692 -0.002525 175.613419 23.734537 -12.938067 4.116660 0.088017 4.432028 -2.835167 -8.652757 -5.941342 -1.183232 5.110276 -4.856016 2.164682 9.327896 -2.905685 -1.237425 -2.390073 7.117783 2.572972 3.470502 -5.080005 5.257783 -12.272744 -10.084632 -7.187014 8.502632 5.265346 1.841985 1.707135 3.071982 0.570407 -2.244498 0.808863 0.923792 -1.330869 -1.045171 -2.005246 6.527466 -12.005874 -4.597592 -1.123764 3.068122 -28.181737 -8.857387 0.906869 -48.050966 -17.023258 8.123104 7.243301 -21.717680 3.332668 -2.668899 -0.982309 0.475237 -9.362809 -5.125259 -7.919113 28.075299 9.736787 2.977012 43.427091 9.565536 12.669166 -10.440898 20.045015 -6.879035 2.933194 -0.305020 0.937688 12.037455 7.721275 -6.065738 
0.000187 0.000218 -0.002308 175.666877 23.601445 -12.878928 4.021594 -0.315145 4.275346 -2.777349 -8.133041 -5.761392 -0.536054 4.728224 -4.954218 1.380266 10.091239 -2.381627 -1.149012 -2.227164 7.020903 2.436095 2.969506 -5.069376 5.075458 -12.081476 -10.058940 -6.853760 9.074957 6.036896 1.650495 1.955650 2.378469 0.546819 -2.407424 0.376602 0.897682 -1.004844 -2.199538 -1.627639 6.023254 -10.539720 -4.035568 -1.724210 4.742874 -27.096408 -13.120922 0.248016 -47.330656 -21.791448 8.390402 9.188778 -27.349396 0.837540 -1.956639 -1.127408 0.173551 -9.114984 -4.986014 -6.503372 26.623435 13.292168 2.520573 42.721929 12.743103 12.886444 -11.423216 25.020879 -7.064650 3.149703 0.210356 1.126245 11.507510 7.756791 -5.514375 
0.000137 -0.000162 -0.001524 175.658776 23.552152 -12.737204 4.027531 -0.652068 4.143629 -2.733749 -7.780897 -5.736846 -0.803931 4.603971 -5.015722 2.029314 10.418396 -2.688338 -1.057120 -2.052194 6.879535 2.347374 2.629833 -5.039643 5.531653 -11.887180 -10.155237 -7.642824 9.196070 5.844092 1.508055 1.965007 1.907664 0.533167 -2.417371 0.224939 0.882093 -0.968160 -2.463691 -1.271097 5.386338 -10.760579 -3.619621 -2.483586 5.211843 -27.153225 -13.848626 0.154786 -49.192765 -23.303684 9.559418 11.361646 -33.223567 -0.455554 -0.772651 -1.933629 -0.857565 -9.001800 -4.852287 -5.601007 26.196356 14.021595 2.206038 43.974045 13.478747 13.841132 -12.989731 30.148357 -7.110334 2.679365 0.883391 0.786098 11.141069 7.694885 -5.207348 
0.000261 -0.000245 0.000028 175.614308 23.337151 -12.830039 4.146596 -0.701763 4.360686 -2.744178 -7.740318 -5.749840 -1.355821 4.923416 -5.122647 3.168292 10.196049 -3.296070 -0.995843 -2.002475 7.046558 2.416986 2.919281 -5.065332 5.924783 -11.970906 -10.253802 -8.544516 9.088249 5.268853 1.473737 1.944219 1.696037 0.558513 -2.266981 0.587574 0.875616 -1.059313 -1.959540 -0.623444 4.448812 -11.881861 -2.998629 -3.312077 4.682837 -27.994253 -12.071076 0.829815 -51.313282 -21.195427 10.890662 10.310226 -35.718455 1.812408 -0.651369 -2.997926 -1.664454 -9.066703 -4.780650 -5.863382 26.450575 12.839070 2.583775 45.333617 11.769106 15.142483 -11.933252 32.975838 -4.724825 2.616033 1.467073 0.615713 11.066383 7.604238 -5.358124 
0.000292 -0.000002 0.002170 175.627263 23.020595 -13.124256 4.324981 -0.190721 4.991255 -2.892683 -8.297213 -5.954802 -1.517693 5.380525 -5.171872 3.647894 9.796637 -3.553348 -1.084493 -2.137470 7.537751 2.643381 3.946133 -5.151750 5.697756 -12.615144 -10.375555 -8.729011 9.189411 4.851681 1.545457 1.935954 1.634661 0.558484 -2.194411 1.475839 0.785677 -1.229658 -1.055777 0.573264 3.424705 -13.171337 -2.108699 -4.233872 3.386678 -29.557379 -9.717930 1.806290 -51.195197 -16.794099 10.836501 5.429597 -28.719294 6.936258 -2.183620 -2.569990 0.668738 -9.668159 -5.095312 -8.107355 27.399304 11.100305 3.463541 45.285221 8.669443 15.968962 -8.128381 30.160827 0.139643 3.345781 1.249164 2.647606 11.687428 7.816106 -6.226141 
0.000561 0.000307 0.004200 175.777393 22.445754 -13.239391 4.418427 0.712267 5.515543 -2.980321 -9.109741 -6.169418 -1.761075 5.803779 -5.037106 4.284910 9.592842 -3.770712 -1.263402 -2.254235 7.945884 2.857270 5.202048 -5.339111 5.753224 -13.417071 -10.391393 -9.627421 9.351775 3.999578 1.789464 1.750709 1.628229 0.564907 -2.571484 2.290532 0.748724 -1.818594 0.023218 1.535833 2.750747 -13.623144 -1.501674 -4.611768 1.937385 -30.763362 -7.401078 2.528553 -50.345139 -11.596649 9.149086 1.627977 -12.527609 9.052912 -4.266446 -0.223925 4.650138 -10.719848 -5.739686 -11.922963 27.724483 8.518245 3.866363 45.213383 5.378035 16.030729 -6.129937 26.863172 2.760116 3.618426 0.966424 3.795390 12.972000 8.251980 -7.342858 
0.001435 -0.000052 0.005812 175.984088 21.652945 -13.193965 4.502865 1.576171 5.815053 -2.948567 -9.810651 -6.301301 -3.316386 6.398958 -4.688259 6.769402 9.374755 -5.157720 -1.368765 -2.215212 8.027503 2.962205 6.334186 -5.270793 7.132392 -14.147359 -10.440239 -12.353640 9.348475 1.877428 2.054809 1.222102 1.488096 0.543674 -2.959664 2.521313 0.605730 -2.595359 1.687255 2.287843 1.854500 -12.535337 -1.269999 -4.914919 1.911550 -29.919178 -2.893353 2.786445 -50.608976 -5.615636 7.904867 0.103333 -3.873024 10.917774 -3.961658 0.519581 6.438086 -11.492252 -6.015589 -15.067422 25.751293 4.274104 3.228770 45.727997 1.589006 16.687193 -5.380405 31.658014 5.195385 1.124972 2.306150 2.575218 13.852132 8.439369 -8.120930 
0.001486 -0.000872 0.006604 176.207088 21.875689 -13.745487 4.453901 1.870865 6.575437 -2.984659 -10.912046 -6.346819 -5.207130 7.108603 -4.237535 9.876442 9.673031 -7.442012 -1.643654 -2.402938 8.940028 2.986685 7.510203 -5.478895 9.116366 -15.725944 -10.757803 -16.101427 10.528290 -0.698781 2.370459 0.843635 0.768412 0.143025 -3.093169 3.028954 -0.168446 -3.160045 3.711854 3.042461 -1.381025 -7.838852 -0.644758 -6.514746 4.853307 -28.279057 1.811025 3.243467 -49.856176 -1.376649 6.631525 -0.596475 -6.187064 10.955842 -1.219201 -0.222123 4.384251 -11.943297 -6.006870 -15.841050 21.936372 -0.263608 3.181968 45.268757 -3.932746 18.876707 -1.345428 45.642738 12.283357 -1.865492 4.228032 0.808353 14.109037 8.629391 -7.978671 
0.001139 -0.001458 0.004775 175.705520 23.554732 -15.279655 4.411858 1.733715 8.089523 -2.992604 -11.020091 -7.163667 -3.159086 7.621426 -1.812588 5.172809 4.680158 -6.541632 -1.745236 -2.913676 10.097145 3.017955 4.636590 -4.600274 8.797789 -13.200407 -9.561951 -15.503408 7.079756 0.987293 2.781835 1.097670 2.400989 0.289346 -3.269787 2.509713 0.693443 -3.118521 2.499397 -1.526555 -10.354664 1.669517 2.358375 -5.237980 10.349805 -30.169189 0.482553 5.591620 -49.309491 -0.261650 3.091623 1.086450 -5.492376 0.342776 5.996708 -5.984345 10.571674 -12.872864 -4.283817 -17.759796 21.054148 -0.625011 4.909670 37.001726 -17.079669 18.366249 14.314903 64.233798 32.248169 -6.209179 13.991200 -7.105613 12.335872 5.562928 -5.106361 
0.003922 -0.001690 -0.001308 175.924662 23.511112 -15.503162 4.104590 1.528797 7.938009 -2.962398 -10.457177 -6.886957 -3.694066 7.726098 -1.259304 6.190060 5.514432 -7.962518 -1.879796 -2.598311 9.567496 3.058899 4.109235 -3.719926 8.202539 -12.381551 -9.032912 -14.565798 5.624397 0.829548 3.737392 0.141091 3.222196 -0.231547 -2.907446 2.958645 0.731313 -3.354243 3.268423 -2.941994 -13.303499 3.274182 2.236961 -5.305332 10.420468 -29.051600 2.733347 4.833868 -52.472960 -1.181598 3.538745 6.064785 -15.493123 -4.302064 6.148501 -5.926135 5.482148 -11.534688 -2.622233 -15.433991 18.528990 -1.411469 4.229124 38.496942 -17.195059 19.453844 22.532328 68.011500 38.958722 -1.729533 13.654578 -12.283641 9.123566 4.163813 -3.039471 
